<?xml version="1.0" encoding="UTF-8"?>
<svg version="1.1" xmlns="http://www.w3.org/2000/svg" width="301" height="301">
<path d="M0 0 C2.98320839 0.61939847 5.23774119 1.57112971 7.8359375 3.15234375 C8.92829712 3.81544556 8.92829712 3.81544556 10.04272461 4.49194336 C11.19720093 5.2074939 11.19720093 5.2074939 12.375 5.9375 C13.16849854 6.42677979 13.96199707 6.91605957 14.77954102 7.42016602 C19.92629134 10.62688815 24.9837373 13.9398272 29.9375 17.4375 C30.50968262 17.83767334 31.08186523 18.23784668 31.67138672 18.65014648 C34.64064085 20.79199976 37.17285436 22.79263643 39 26 C38.39779103 29.2786933 37.65184443 31.2980137 35.375 33.75 C33.1244099 34.9345211 31.46148234 35.37172294 29 35.875 C25.84267559 36.58642692 25.03004927 36.97149172 22.5625 39.3125 C20.54671202 42.77965533 19.60796231 44.93664376 20.37109375 48.953125 C21.49972816 52.73860686 22.79562132 55.33259056 26.125 57.5625 C30.4462306 59.61325351 34.49528117 59.44252232 39 58 C42.69498014 55.3827224 43.79964287 53.93499994 44.75 49.5 C44.8325 48.345 44.915 47.19 45 46 C45.38250682 43.19494996 45.61323652 41.51568464 47.3125 39.25 C49.33631078 37.7508809 50.47055285 37.14879101 53 37 C57.17151384 38.75642688 59.60621204 41.6406843 62.375 45.0859375 C64.45194355 47.53233736 66.72249881 49.73878995 69 52 C71.25156534 54.31251204 73.47272433 56.65228763 75.6875 59 C76.55858398 59.90492187 76.55858398 59.90492187 77.44726562 60.828125 C80.55966076 64.13841809 82.33466707 66.74161443 84 71 C85.31034478 71.71078744 86.64678705 72.37467054 88 73 C89.83203125 75.0390625 89.83203125 75.0390625 91.8125 77.625 C95.9345438 82.76559194 100.19966613 87.74243808 104.625 92.625 C105.24608643 93.3360791 105.86717285 94.0471582 106.50708008 94.77978516 C109.57752884 98.12456256 111.32042808 99.80442961 115.7734375 101.0859375 C119.15310979 101.282402 119.15310979 101.282402 122 99 C122.61954447 96.0539166 122.61954447 96.0539166 122.875 92.6875 C123.83782197 85.3651985 123.83782197 85.3651985 126.4375 82.75 C130.72133234 79.82445596 134.91881429 79.30579626 140 80 C144.95520521 82.57289501 148.49116963 85.98233926 151 91 C151.63266259 96.02514859 151.56966045 99.88102412 149.25 104.4375 C145.33949522 108.46201367 139.30049526 109.03627359 134 110 C133.33439091 112.88324251 133.33439091 112.88324251 133 116 C140.96967859 126.71784362 156.56042366 133.61512018 168 140 C167.54900965 145.59084858 165.96703847 149.44667661 162.9375 154.1875 C162.53845459 154.83098389 162.13940918 155.47446777 161.72827148 156.13745117 C160.50146681 158.10232557 159.25526333 160.05320249 158 162 C157.41847168 162.90347168 157.41847168 162.90347168 156.82519531 163.82519531 C149.10097865 175.75533808 149.10097865 175.75533808 145.75 176.5 C141.6078453 175.74688096 139.33108437 173.3369167 137 170 C136.11826797 167.71065988 135.44740715 165.40901644 134.76171875 163.0546875 C133.57695666 159.8588677 131.95047177 158.60934824 129 157 C124.02916546 155.73469666 120.67570231 155.87468077 116 158 C112.74909445 160.32207539 111.79936753 163.14850192 111 167 C111.2471586 171.42328669 112.17711528 174.19877014 115.375 177.3125 C118.73301724 178.87571492 121.52939556 179.60764539 125.125 180.375 C131.62019231 181.85961538 131.62019231 181.85961538 133.8125 184.875 C135.15170546 188.39922491 135.14660099 189.48093891 134 193 C128.7529014 199.5210855 121.98602873 204.8244496 115.4453125 209.9921875 C112.94981907 211.92576128 112.94981907 211.92576128 110.9921875 214.3203125 C109 216 109 216 106.6328125 216.17578125 C102.68587887 214.41312988 100.5622226 211.5002038 97.875 208.1875 C96.72505583 206.82069047 95.5739964 205.45481853 94.421875 204.08984375 C93.84888672 203.40390137 93.27589844 202.71795898 92.68554688 202.01123047 C90.20643627 199.05310284 87.68894852 196.13478243 85.125 193.25 C84.30257812 192.30640625 83.48015625 191.3628125 82.6328125 190.390625 C79.5170185 187.56144707 76.92258066 186.44566855 73 185 C73 185.66 73 186.32 73 187 C73.70125 187.20625 74.4025 187.4125 75.125 187.625 C78.80173359 189.3834378 81.47295079 191.80428141 84 195 C84 195.66 84 196.32 84 197 C84.66 197 85.32 197 86 197 C87.41438406 198.57286684 88.75604401 200.21139996 90.0625 201.875 C93.95549123 206.7665182 98.03984386 211.37016037 102.34765625 215.90625 C104 218 104 218 104 221 C102.32568359 222.33520508 102.32568359 222.33520508 100.0234375 223.70703125 C95.0158439 226.88164552 90.87743012 230.57735961 86.625 234.6875 C85.92761719 235.35072266 85.23023438 236.01394531 84.51171875 236.69726562 C82.66587199 238.45631153 80.82702311 240.22142272 79 242 C78.14027588 242.74793823 78.14027588 242.74793823 77.26318359 243.51098633 C76.84633301 244.00236084 76.42948242 244.49373535 76 245 C76.23283149 248.14921909 76.23283149 248.14921909 77 251 C77.79664063 251.17015625 78.59328125 251.3403125 79.4140625 251.515625 C86.85199184 253.21675726 92.25489922 254.73555583 97.3125 260.75 C99.29788885 264.57371186 100.22380587 267.68743307 100 272 C98.51828057 276.13321735 96.97606671 279.01196665 93 281 C88.58066668 282.08796565 85.10730599 282.36200388 80.75 280.9375 C73.86912235 276.08960893 71.93404278 270.95630606 70 263 C66.01311217 261.81007952 66.01311217 261.81007952 62 262 C58.9158841 264.45234766 57.05757149 267.67589816 55 271 C54.63197266 271.58539551 54.26394531 272.17079102 53.88476562 272.77392578 C50.19069812 278.67069553 46.5905764 284.60417014 43.5625 290.875 C42 294 42 294 40 295 C37.69921875 293.83984375 37.69921875 293.83984375 34.6875 291.9375 C34.13860107 291.59114502 33.58970215 291.24479004 33.02416992 290.88793945 C31.00748383 289.60493935 29.00323728 288.30390302 27 287 C26.13020508 286.43603516 25.26041016 285.87207031 24.36425781 285.29101562 C21.50741504 283.4325372 18.65861967 281.56235374 15.8125 279.6875 C14.87946045 279.07704834 13.9464209 278.46659668 12.98510742 277.83764648 C12.10959229 277.25571533 11.23407715 276.67378418 10.33203125 276.07421875 C9.54546143 275.55432373 8.7588916 275.03442871 7.94848633 274.4987793 C6 273 6 273 4 270 C3.66042437 265.92509248 3.68667514 264.46998729 6 261 C8.4609375 260.2265625 8.4609375 260.2265625 11.375 259.625 C14.84588758 258.72884685 16.81491728 258.14204023 19.6875 255.9375 C21.6342157 251.58056485 21.8832544 247.68573945 21 243 C19.09704729 239.38293722 16.93956929 237.31318976 13 236 C5.95919267 235.53803653 5.95919267 235.53803653 0 239 C-2.27287987 242.44850738 -3.01037534 244.4086055 -2.9375 248.5625 C-3 252 -3 252 -4.625 254.9375 C-7 257 -7 257 -9.71484375 257.53515625 C-14.55771675 256.7462459 -16.68664639 254.0070326 -19.9375 250.5 C-20.5557666 249.85651611 -21.1740332 249.21303223 -21.81103516 248.55004883 C-25.44011482 244.74895443 -29.01534069 240.89435913 -32.40234375 236.875 C-33.63328621 235.43037315 -34.90435902 234.01987472 -36.19140625 232.625 C-36.93261719 231.820625 -37.67382812 231.01625 -38.4375 230.1875 C-39.11683594 229.45917969 -39.79617187 228.73085937 -40.49609375 227.98046875 C-42 226 -42 226 -42 223 C-42.99 223 -43.98 223 -45 223 C-46.952442 220.96319323 -48.72568735 218.93372579 -50.5 216.75 C-51.57397297 215.46485073 -52.64952712 214.18102136 -53.7265625 212.8984375 C-54.54302246 211.92148926 -54.54302246 211.92148926 -55.37597656 210.92480469 C-57.82214496 208.02558766 -60.33058389 205.18809222 -62.875 202.375 C-64.13957031 200.96347656 -64.13957031 200.96347656 -65.4296875 199.5234375 C-68.12085813 196.88134597 -70.72057585 194.86177978 -74 193 C-76.53735644 193.62024268 -78.14549434 194.14549434 -80 196 C-80.13223519 197.56037521 -80.23068529 199.12367031 -80.3125 200.6875 C-80.85843504 206.56680047 -82.66207709 210.05173091 -87.25 213.875 C-90.89765864 215.36722399 -94.15302728 215.68021129 -98 215 C-103.23181418 212.2834811 -106.42671388 208.7719803 -109.3125 203.6875 C-110.27834936 199.91190705 -110.17628071 196.72488891 -109 193 C-104.44106666 187.33213693 -99.85950316 185.84678931 -93 184 C-92.67 181.69 -92.34 179.38 -92 177 C-92.721875 176.566875 -93.44375 176.13375 -94.1875 175.6875 C-95.115625 175.130625 -96.04375 174.57375 -97 174 C-97.928125 173.484375 -98.85625 172.96875 -99.8125 172.4375 C-100.534375 171.963125 -101.25625 171.48875 -102 171 C-102 170.34 -102 169.68 -102 169 C-102.50789063 168.76023438 -103.01578125 168.52046875 -103.5390625 168.2734375 C-106.90467264 166.53186781 -110.12977268 164.57980228 -113.375 162.625 C-114.02210937 162.23828125 -114.66921875 161.8515625 -115.3359375 161.453125 C-119.2996238 159.0717167 -123.17268321 156.59499188 -127 154 C-126.28341891 149.92572468 -124.31334926 146.47582352 -122.375 142.875 C-122.01817139 142.20992432 -121.66134277 141.54484863 -121.29370117 140.85961914 C-118.24546971 135.27423289 -114.82769995 130.08469772 -111 125 C-110.57074219 124.34773438 -110.14148438 123.69546875 -109.69921875 123.0234375 C-108.5 121.3125 -108.5 121.3125 -106 119 C-102.4375 118.8125 -102.4375 118.8125 -99 120 C-95.49058326 123.21696534 -94.29420245 126.76235083 -92.78515625 131.1328125 C-91.38866308 134.4538261 -89.16744915 136.41627542 -86 138 C-81.08003072 138.53118252 -77.22672403 138.75105553 -72.9375 136.125 C-69.67580669 132.54765895 -69.70303315 129.93829592 -69.80078125 125.25390625 C-70.093084 121.94687323 -70.6684928 120.40215893 -73 118 C-77.11056146 116.12112061 -81.42149082 115.1327726 -85.8125 114.125 C-89.64484205 112.77240869 -90.96954881 111.49237605 -93 108 C-93.5 105.5 -93.5 105.5 -93 103 C-91.125 100.1875 -91.125 100.1875 -89 98 C-88.34 98 -87.68 98 -87 98 C-87 97.34 -87 96.68 -87 96 C-85.70703125 94.66015625 -85.70703125 94.66015625 -83.8125 93.0625 C-83.09320313 92.45277344 -82.37390625 91.84304687 -81.6328125 91.21484375 C-80.76398438 90.48394531 -79.89515625 89.75304687 -79 89 C-77.89224982 88.0441025 -76.78554089 87.08699746 -75.6796875 86.12890625 C-74.51591321 85.12726921 -73.35185051 84.12596716 -72.1875 83.125 C-71.62458252 82.63652588 -71.06166504 82.14805176 -70.48168945 81.64477539 C-67.9937534 79.52287707 -66.13408351 78.0446945 -63 77 C-62.28714844 77.845625 -61.57429688 78.69125 -60.83984375 79.5625 C-57.8996358 83.04711467 -54.95112392 86.52462872 -52 90 C-51.34902344 90.76828125 -50.69804688 91.5365625 -50.02734375 92.328125 C-43.40201486 100.05326505 -43.40201486 100.05326505 -36 107 C-35.01 107 -34.02 107 -33 107 C-33.56847656 106.5153125 -34.13695313 106.030625 -34.72265625 105.53125 C-39.18385828 101.65842019 -43.28882525 97.72959407 -47.1015625 93.21875 C-50.25728197 89.53058403 -53.57525969 85.9879646 -56.86328125 82.41796875 C-59 80 -59 80 -61 77 C-60.81722049 74.33141916 -60.31736893 73.29626126 -58.35546875 71.46484375 C-57.64003906 70.96082031 -56.92460938 70.45679687 -56.1875 69.9375 C-52.15600165 66.95096602 -48.43084113 63.77450296 -44.75 60.375 C-44.2552417 59.91988037 -43.7604834 59.46476074 -43.25073242 58.99584961 C-41.82442327 57.6739688 -40.41204656 56.33710554 -39 55 C-38.05640625 54.12988281 -37.1128125 53.25976562 -36.140625 52.36328125 C-33.64335582 50.13769827 -33.64335582 50.13769827 -34 46.8125 C-34.78737233 43.70976172 -34.78737233 43.70976172 -38 42 C-39.37243628 41.90629953 -40.74937767 41.87006945 -42.125 41.875 C-48.25039962 41.33363899 -52.16065983 37.57798701 -56 33 C-58.416333 28.18998711 -58.65936232 24.11262985 -57 19 C-54.60775276 15.52165832 -51.91367884 13.39799213 -47.74609375 12.53125 C-42.8399499 12.33201573 -39.12670249 13.21687506 -35 16 C-31.34068066 19.55476736 -30.10906098 23.20564422 -28.80859375 28.01171875 C-28.07127406 30.35821777 -28.07127406 30.35821777 -25 32 C-22.01322117 32.50001027 -22.01322117 32.50001027 -19 32 C-17.06794163 30.40168985 -17.06794163 30.40168985 -15.6875 28 C-15.10871094 27.09765625 -14.52992187 26.1953125 -13.93359375 25.265625 C-9.02823588 16.9810206 -4.24283141 8.64678299 0 0 Z M-13 85 C-10.97566624 87.02433376 -9.71155065 87.60895718 -7.125 88.6875 C-2.47135762 90.9509776 -1.06350566 93.2952071 1 98 C1.75 100.9375 1.75 100.9375 2 103 C2.33 103 2.66 103 3 103 C3.48470096 99.04160883 3.81263871 95.5067676 1.875 91.9140625 C-1.2482078 88.05885287 -4.01631565 85.97506868 -9 85 C-10.32 85 -11.64 85 -13 85 Z M55 96 C55 97.65 55 99.3 55 101 C55.33 101 55.66 101 56 101 C56 99.35 56 97.7 56 96 C55.67 96 55.34 96 55 96 Z M78 114 C79 116 79 116 79 116 Z M39 115 C40 117 40 117 40 117 Z M79 116 C79 118.97 79 121.94 79 125 C79.33 125 79.66 125 80 125 C80 122.03 80 119.06 80 116 C79.67 116 79.34 116 79 116 Z M-17 119 C-16.77042092 122.74801193 -16.52859783 124.49630993 -13.76171875 127.1328125 C-12.74722656 127.79023438 -11.73273438 128.44765625 -10.6875 129.125 C-10.12933594 129.49262451 -9.57117188 129.86024902 -8.99609375 130.23901367 C-2.75037044 134.29356242 3.68138863 138.07719785 10.10668945 141.83837891 C13.40308465 143.77667352 16.55163511 145.63812525 19.53125 148.04296875 C22.38436941 150.3046979 25.37484537 151.92589319 28.56933594 153.65673828 C32.68323043 155.93020629 36.64887118 158.43318015 40.625 160.9375 C41.83542969 161.68676758 41.83542969 161.68676758 43.0703125 162.45117188 C56.20206357 170.71181074 56.20206357 170.71181074 59 177 C59.58661468 173.75393319 59.58661468 173.75393319 59 170 C54.48891198 164.54098934 47.46859341 160.98823618 41.5 157.375 C40.58863281 156.81554687 39.67726562 156.25609375 38.73828125 155.6796875 C34.85374506 153.30300158 30.96748276 150.96849604 26.96875 148.7890625 C24 147 24 147 22 144 C20.68 144 19.36 144 18 144 C15.90039062 142.94946289 15.90039062 142.94946289 13.65625 141.47265625 C12.82730225 140.9317334 11.99835449 140.39081055 11.14428711 139.83349609 C10.27167236 139.24906738 9.39905762 138.66463867 8.5 138.0625 C7.60740479 137.47291504 6.71480957 136.88333008 5.79516602 136.27587891 C-11.6076627 124.69289381 -11.6076627 124.69289381 -17 119 Z M34 122 C35 124 35 124 35 124 Z M33 124 C34 126 34 126 34 126 Z M78 125 C79 128 79 128 79 128 Z M31 127 C32 129 32 129 32 129 Z M30 129 C31 131 31 131 31 131 Z M27 134 C28 136 28 136 28 136 Z M26 136 C27 138 27 138 27 138 Z M25 138 C26 140 26 140 26 140 Z M24 140 C25 142 25 142 25 142 Z M19 149 C19 152 19 152 19 152 Z M16 154 C17 156 17 156 17 156 Z M15 156 C16 158 16 158 16 158 Z M12 161 C13 163 13 163 13 163 Z M11 163 C12 165 12 165 12 165 Z M9 166 C10 168 10 168 10 168 Z M-37 167 C-37.33 168.65 -37.66 170.3 -38 172 C-37.34 171.01 -36.68 170.02 -36 169 C-36.33 168.34 -36.66 167.68 -37 167 Z M6 171 C7 173 7 173 7 173 Z M-39 172 C-38 176 -38 176 -38 176 Z M4 174 C5 176 5 176 5 176 Z M-38 176 C-37 179 -37 179 -37 179 Z M2 177 C3 179 3 179 3 179 Z M-37 179 C-36 181 -36 181 -36 181 Z M40 189 C39.17454287 193.47537 38.63968413 196.93906993 40.125 201.3125 C42.57674072 204.8266617 44.69955351 207.37218891 48.9609375 208.53515625 C53.03095301 209.19331861 55.47411037 209.0260123 59 207 C58.33613281 206.90203125 57.67226562 206.8040625 56.98828125 206.703125 C50.82588571 205.65956605 46.55056982 204.57079775 42.75 199.25 C41.62477001 195.87431002 41.35387781 192.53877808 41 189 C40.67 189 40.34 189 40 189 Z M-15 192 C-14 194 -14 194 -14 194 Z M-14 194 C-13 198 -13 198 -13 198 Z " fill="#75BE32" transform="translate(130,2)"/>
<path d="M0 0 C2.98320839 0.61939847 5.23774119 1.57112971 7.8359375 3.15234375 C8.92829712 3.81544556 8.92829712 3.81544556 10.04272461 4.49194336 C11.19720093 5.2074939 11.19720093 5.2074939 12.375 5.9375 C13.16849854 6.42677979 13.96199707 6.91605957 14.77954102 7.42016602 C19.92629134 10.62688815 24.9837373 13.9398272 29.9375 17.4375 C30.50968262 17.83767334 31.08186523 18.23784668 31.67138672 18.65014648 C34.64064085 20.79199976 37.17285436 22.79263643 39 26 C38.39779103 29.2786933 37.65184443 31.2980137 35.375 33.75 C33.1244099 34.9345211 31.46148234 35.37172294 29 35.875 C25.84267559 36.58642692 25.03004927 36.97149172 22.5625 39.3125 C20.54671202 42.77965533 19.60796231 44.93664376 20.37109375 48.953125 C21.49972816 52.73860686 22.79562132 55.33259056 26.125 57.5625 C30.4462306 59.61325351 34.49528117 59.44252232 39 58 C42.69498014 55.3827224 43.79964287 53.93499994 44.75 49.5 C44.8325 48.345 44.915 47.19 45 46 C45.38250682 43.19494996 45.61323652 41.51568464 47.3125 39.25 C49.33631078 37.7508809 50.47055285 37.14879101 53 37 C57.17151384 38.75642688 59.60621204 41.6406843 62.375 45.0859375 C64.45194355 47.53233736 66.72249881 49.73878995 69 52 C71.25156534 54.31251204 73.47272433 56.65228763 75.6875 59 C76.55858398 59.90492187 76.55858398 59.90492187 77.44726562 60.828125 C80.55966076 64.13841809 82.33466707 66.74161443 84 71 C85.31034478 71.71078744 86.64678705 72.37467054 88 73 C89.83203125 75.0390625 89.83203125 75.0390625 91.8125 77.625 C95.9345438 82.76559194 100.19966613 87.74243808 104.625 92.625 C105.24608643 93.3360791 105.86717285 94.0471582 106.50708008 94.77978516 C109.57752884 98.12456256 111.32042808 99.80442961 115.7734375 101.0859375 C119.15310979 101.282402 119.15310979 101.282402 122 99 C122.61954447 96.0539166 122.61954447 96.0539166 122.875 92.6875 C123.83782197 85.3651985 123.83782197 85.3651985 126.4375 82.75 C130.72133234 79.82445596 134.91881429 79.30579626 140 80 C144.95520521 82.57289501 148.49116963 85.98233926 151 91 C151.63266259 96.02514859 151.56966045 99.88102412 149.25 104.4375 C145.33949522 108.46201367 139.30049526 109.03627359 134 110 C133.33439091 112.88324251 133.33439091 112.88324251 133 116 C140.96967859 126.71784362 156.56042366 133.61512018 168 140 C167.54900965 145.59084858 165.96703847 149.44667661 162.9375 154.1875 C162.53845459 154.83098389 162.13940918 155.47446777 161.72827148 156.13745117 C160.50146681 158.10232557 159.25526333 160.05320249 158 162 C157.61231445 162.60231445 157.22462891 163.20462891 156.82519531 163.82519531 C149.10097865 175.75533808 149.10097865 175.75533808 145.75 176.5 C141.6078453 175.74688096 139.33108437 173.3369167 137 170 C136.11826797 167.71065988 135.44740715 165.40901644 134.76171875 163.0546875 C133.57695666 159.8588677 131.95047177 158.60934824 129 157 C124.02916546 155.73469666 120.67570231 155.87468077 116 158 C112.74909445 160.32207539 111.79936753 163.14850192 111 167 C111.2471586 171.42328669 112.17711528 174.19877014 115.375 177.3125 C118.73301724 178.87571492 121.52939556 179.60764539 125.125 180.375 C131.62019231 181.85961538 131.62019231 181.85961538 133.8125 184.875 C135.15170546 188.39922491 135.14660099 189.48093891 134 193 C128.7529014 199.5210855 121.98602873 204.8244496 115.4453125 209.9921875 C112.94981907 211.92576128 112.94981907 211.92576128 110.9921875 214.3203125 C109 216 109 216 106.6328125 216.17578125 C102.68631787 214.41332593 100.56125769 211.50060511 97.875 208.1875 C96.73058958 206.82172312 95.58473204 205.45715762 94.4375 204.09375 C93.86515625 203.40796875 93.2928125 202.7221875 92.703125 202.015625 C90.16270101 199.00906817 87.53333958 196.08976961 84.875 193.1875 C83.57175781 191.75470703 83.57175781 191.75470703 82.2421875 190.29296875 C80.02460249 187.86684175 80.02460249 187.86684175 77 186 C77 185.34 77 184.68 77 184 C72.16106261 184.19701883 72.16106261 184.19701883 68.296875 186.73828125 C66.80820462 189.33448652 66.64029277 190.96764651 66.5625 193.9375 C66.2433243 198.44585673 65.39309907 200.8125433 62 204 C58.30484576 205.84757712 54.04135298 205.34143535 50 205 C46.42096155 203.7636049 44.61367781 202.69550152 42.125 199.875 C40.15079981 194.82982174 40.12601814 190.05385737 42.25 185.0625 C45.53936391 181.18574967 49.39344592 180.57723407 54.1953125 179.5625 C56.22727391 179.08250081 56.22727391 179.08250081 58 177 C58.92007728 173.71618871 58.92007728 173.71618871 58 170 C52.5841684 164.56451734 45.52303512 160.71446271 38.9375 156.875 C37.23787331 155.87308754 35.53864944 154.8704914 33.83984375 153.8671875 C33.02370605 153.38733398 32.20756836 152.90748047 31.36669922 152.41308594 C29.13884458 151.08289998 26.94393144 149.71164711 24.75390625 148.3203125 C22.52627378 146.91403085 20.373391 145.68751353 18.0078125 144.5078125 C7.95364346 139.46767062 -10.02124807 130.35735692 -15.3984375 120.4140625 C-16 118 -16 118 -14.6875 115.25 C-12.30879545 112.07839393 -11.54766507 111.8452272 -7.6875 111.125 C-4.14920659 110.35996359 -1.53194241 109.74293761 1 107 C2.32692747 102.69892476 2.78437394 98.44478563 2 94 C-0.23139569 89.79141825 -2.40710674 86.53096442 -7 85 C-11.84212927 84.49937308 -15.72702911 84.25743365 -20 86.75 C-23.95264957 91.19673077 -24.288877 94.87429702 -24.55859375 100.66015625 C-25.0770864 103.40862613 -25.76043687 104.36235335 -28 106 C-30.375 105.8125 -30.375 105.8125 -33 105 C-33.73992187 104.79632813 -34.47984375 104.59265625 -35.2421875 104.3828125 C-39.24473213 102.37587086 -41.77944217 99.36253371 -44.75 96.0625 C-45.36109619 95.3924292 -45.97219238 94.7223584 -46.60180664 94.03198242 C-48.4137396 92.0321559 -50.20908323 90.01864876 -52 88 C-52.50837402 87.43345703 -53.01674805 86.86691406 -53.54052734 86.28320312 C-61.0166211 77.89753955 -61.0166211 77.89753955 -60.9609375 74.890625 C-59.73400636 72.47666291 -58.40103298 71.49694395 -56.1875 69.9375 C-52.15600165 66.95096602 -48.43084113 63.77450296 -44.75 60.375 C-44.2552417 59.91988037 -43.7604834 59.46476074 -43.25073242 58.99584961 C-41.82442327 57.6739688 -40.41204656 56.33710554 -39 55 C-38.05640625 54.12988281 -37.1128125 53.25976562 -36.140625 52.36328125 C-33.64335582 50.13769827 -33.64335582 50.13769827 -34 46.8125 C-34.78737233 43.70976172 -34.78737233 43.70976172 -38 42 C-39.37243628 41.90629953 -40.74937767 41.87006945 -42.125 41.875 C-48.25039962 41.33363899 -52.16065983 37.57798701 -56 33 C-58.416333 28.18998711 -58.65936232 24.11262985 -57 19 C-54.60775276 15.52165832 -51.91367884 13.39799213 -47.74609375 12.53125 C-42.8399499 12.33201573 -39.12670249 13.21687506 -35 16 C-31.34068066 19.55476736 -30.10906098 23.20564422 -28.80859375 28.01171875 C-28.07127406 30.35821777 -28.07127406 30.35821777 -25 32 C-22.01322117 32.50001027 -22.01322117 32.50001027 -19 32 C-17.06794163 30.40168985 -17.06794163 30.40168985 -15.6875 28 C-14.81931641 26.64648438 -14.81931641 26.64648438 -13.93359375 25.265625 C-9.02823588 16.9810206 -4.24283141 8.64678299 0 0 Z M55 96 C55 97.65 55 99.3 55 101 C55.33 101 55.66 101 56 101 C56 99.35 56 97.7 56 96 C55.67 96 55.34 96 55 96 Z M78 114 C79 116 79 116 79 116 Z M39 115 C40 117 40 117 40 117 Z M79 116 C79 118.97 79 121.94 79 125 C79.33 125 79.66 125 80 125 C80 122.03 80 119.06 80 116 C79.67 116 79.34 116 79 116 Z M34 122 C35 124 35 124 35 124 Z M33 124 C34 126 34 126 34 126 Z M78 125 C79 128 79 128 79 128 Z M31 127 C32 129 32 129 32 129 Z M30 129 C31 131 31 131 31 131 Z M27 134 C28 136 28 136 28 136 Z M26 136 C27 138 27 138 27 138 Z M25 138 C26 140 26 140 26 140 Z M24 140 C25 142 25 142 25 142 Z " fill="#E71E2F" transform="translate(130,2)"/>
<path d="M0 0 C6.67043361 2.00677779 12.01843886 5.49594045 17.875 9.1875 C18.92558594 9.83525391 19.97617188 10.48300781 21.05859375 11.15039062 C34.76558257 19.73655822 34.76558257 19.73655822 38 24 C38.30761719 26.59790039 38.30761719 26.59790039 38 29 C35.24863211 31.87933849 32.73726863 32.40230444 28.875 32.875 C26.26516148 33.28715803 26.26516148 33.28715803 24 34 C22.33609251 36.24308557 22.33609251 36.24308557 22 39 C21.608125 39.763125 21.21625 40.52625 20.8125 41.3125 C19.67088031 45.08862667 19.81168774 48.23701118 21 52 C23.55879954 55.18121024 26.10163689 57.65993768 30 59 C32.66709069 59.16750414 32.66709069 59.16750414 35 59 C34.43410156 58.80664062 33.86820312 58.61328125 33.28515625 58.4140625 C32.55167969 58.15367187 31.81820312 57.89328125 31.0625 57.625 C30.33160156 57.36976563 29.60070312 57.11453125 28.84765625 56.8515625 C27 56 27 56 26 54 C26.83724609 54.23589844 26.83724609 54.23589844 27.69140625 54.4765625 C33.15321967 55.71494321 38.20444763 56.09931778 43.0625 53.125 C45.39074295 49.36976943 45.46308653 46.70787246 45.71484375 42.3828125 C46.13837817 38.84368924 47.22061558 37.19425086 50 35 C53.75 34.6875 53.75 34.6875 57 35 C55.68 35.33 54.36 35.66 53 36 C53 36.66 53 37.32 53 38 C53.70125 38.20625 54.4025 38.4125 55.125 38.625 C58.80173359 40.3834378 61.47295079 42.80428141 64 46 C64 46.66 64 47.32 64 48 C64.66 48 65.32 48 66 48 C67.41438406 49.57286684 68.75604401 51.21139996 70.0625 52.875 C73.95549123 57.7665182 78.03984386 62.37016037 82.34765625 66.90625 C84 69 84 69 84 72 C82.32568359 73.33520508 82.32568359 73.33520508 80.0234375 74.70703125 C75.0158439 77.88164552 70.87743012 81.57735961 66.625 85.6875 C65.92761719 86.35072266 65.23023438 87.01394531 64.51171875 87.69726562 C62.66587199 89.45631153 60.82702311 91.22142272 59 93 C58.14027588 93.74793823 58.14027588 93.74793823 57.26318359 94.51098633 C56.84633301 95.00236084 56.42948242 95.49373535 56 96 C56.23283149 99.14921909 56.23283149 99.14921909 57 102 C57.79664063 102.17015625 58.59328125 102.3403125 59.4140625 102.515625 C66.85199184 104.21675726 72.25489922 105.73555583 77.3125 111.75 C79.29788885 115.57371186 80.22380587 118.68743307 80 123 C78.51828057 127.13321735 76.97606671 130.01196665 73 132 C68.58066668 133.08796565 65.10730599 133.36200388 60.75 131.9375 C53.86912235 127.08960893 51.93404278 121.95630606 50 114 C46.01311217 112.81007952 46.01311217 112.81007952 42 113 C38.9158841 115.45234766 37.05757149 118.67589816 35 122 C34.63197266 122.58539551 34.26394531 123.17079102 33.88476562 123.77392578 C30.19069812 129.67069553 26.5905764 135.60417014 23.5625 141.875 C22 145 22 145 20 146 C17.69921875 144.83984375 17.69921875 144.83984375 14.6875 142.9375 C14.13860107 142.59114502 13.58970215 142.24479004 13.02416992 141.88793945 C11.00748383 140.60493935 9.00323728 139.30390302 7 138 C5.69530762 137.15405273 5.69530762 137.15405273 4.36425781 136.29101562 C1.50741504 134.4325372 -1.34138033 132.56235374 -4.1875 130.6875 C-5.12053955 130.07704834 -6.0535791 129.46659668 -7.01489258 128.83764648 C-7.89040771 128.25571533 -8.76592285 127.67378418 -9.66796875 127.07421875 C-10.45453857 126.55432373 -11.2411084 126.03442871 -12.05151367 125.4987793 C-14 124 -14 124 -16 121 C-16.33957563 116.92509248 -16.31332486 115.46998729 -14 112 C-11.5390625 111.2265625 -11.5390625 111.2265625 -8.625 110.625 C-5.15411242 109.72884685 -3.18508272 109.14204023 -0.3125 106.9375 C1.6342157 102.58056485 1.8832544 98.68573945 1 94 C-0.90295271 90.38293722 -3.06043071 88.31318976 -7 87 C-14.04080733 86.53803653 -14.04080733 86.53803653 -20 90 C-22.27287987 93.44850738 -23.01037534 95.4086055 -22.9375 99.5625 C-23 103 -23 103 -24.625 105.9375 C-27 108 -27 108 -29.71484375 108.53515625 C-34.55771675 107.7462459 -36.68664639 105.0070326 -39.9375 101.5 C-40.5557666 100.85651611 -41.1740332 100.21303223 -41.81103516 99.55004883 C-46.01135536 95.15063766 -50.06958566 90.64154065 -54 86 C-55.47539303 84.32999185 -56.95464029 82.66338176 -58.4375 81 C-59.45650391 79.8553125 -59.45650391 79.8553125 -60.49609375 78.6875 C-60.99238281 78.130625 -61.48867187 77.57375 -62 77 C-60.42772214 72.95564671 -57.54821336 70.49442329 -54.375 67.6875 C-53.83665527 67.2025708 -53.29831055 66.7176416 -52.74365234 66.21801758 C-49.73020683 63.5111386 -46.6837003 60.84311576 -43.625 58.1875 C-43.01011719 57.64609375 -42.39523438 57.1046875 -41.76171875 56.546875 C-40.5694932 55.50004281 -39.36317109 54.46908579 -38.14453125 53.453125 C-36.20472268 51.80790201 -36.20472268 51.80790201 -34 49 C-34.0619787 45.77710775 -34.57333033 43.85333934 -36 41 C-39.07690153 39.07171556 -41.80460658 38.69754243 -45.375 38.3125 C-50.43066376 37.44735968 -52.98388432 36.10530509 -55.97265625 31.9296875 C-57.61228912 28.84992082 -58.06326939 26.47981657 -58 23 C-56.36205247 18.35914867 -54.27882916 15.4722124 -50 13 C-44.18218982 12.34315046 -40.19174588 13.04783077 -35 16 C-32.10017701 19.52121363 -31.06637524 23.68158768 -29.84375 28.01171875 C-29.06477744 30.35349411 -29.06477744 30.35349411 -26 32 C-23.01057366 32.49479818 -23.01057366 32.49479818 -20 32 C-18.10198201 30.43508774 -18.10198201 30.43508774 -16.75 28.0625 C-16.1725 27.16273438 -15.595 26.26296875 -15 25.3359375 C-14.34 24.23507813 -13.68 23.13421875 -13 22 C-12.59136719 21.31969727 -12.18273437 20.63939453 -11.76171875 19.93847656 C-9.1615127 15.59521203 -6.6057271 11.2276774 -4.07226562 6.84521484 C-2.73811772 4.54933829 -1.374685 2.27180086 0 0 Z " fill="#0885C9" transform="translate(150,151)"/>
<path d="M0 0 C3.69144474 1.48967393 5.41252438 3.49130402 7.8125 6.625 C11.9345438 11.76559194 16.19966613 16.74243808 20.625 21.625 C21.24608643 22.3360791 21.86717285 23.0471582 22.50708008 23.77978516 C25.57752884 27.12456256 27.32042808 28.80442961 31.7734375 30.0859375 C35.15310979 30.282402 35.15310979 30.282402 38 28 C38.61954447 25.0539166 38.61954447 25.0539166 38.875 21.6875 C39.83782197 14.3651985 39.83782197 14.3651985 42.4375 11.75 C46.72133234 8.82445596 50.91881429 8.30579626 56 9 C60.95520521 11.57289501 64.49116963 14.98233926 67 20 C67.63266259 25.02514859 67.56966045 28.88102412 65.25 33.4375 C61.33949522 37.46201367 55.30049526 38.03627359 50 39 C49.33439091 41.88324251 49.33439091 41.88324251 49 45 C56.96967859 55.71784362 72.56042366 62.61512018 84 69 C83.54900965 74.59084858 81.96703847 78.44667661 78.9375 83.1875 C78.53845459 83.83098389 78.13940918 84.47446777 77.72827148 85.13745117 C76.50146681 87.10232557 75.25526333 89.05320249 74 91 C73.61231445 91.60231445 73.22462891 92.20462891 72.82519531 92.82519531 C65.10097865 104.75533808 65.10097865 104.75533808 61.75 105.5 C57.6078453 104.74688096 55.33108437 102.3369167 53 99 C52.11826797 96.71065988 51.44740715 94.40901644 50.76171875 92.0546875 C49.57695666 88.8588677 47.95047177 87.60934824 45 86 C40.02916546 84.73469666 36.67570231 84.87468077 32 87 C28.74909445 89.32207539 27.79936753 92.14850192 27 96 C27.2471586 100.42328669 28.17711528 103.19877014 31.375 106.3125 C34.73301724 107.87571492 37.52939556 108.60764539 41.125 109.375 C47.62019231 110.85961538 47.62019231 110.85961538 49.8125 113.875 C51.15170546 117.39922491 51.14660099 118.48093891 50 122 C44.7529014 128.5210855 37.98602873 133.8244496 31.4453125 138.9921875 C28.94981907 140.92576128 28.94981907 140.92576128 26.9921875 143.3203125 C25 145 25 145 22.6328125 145.17578125 C18.68631787 143.41332593 16.56125769 140.50060511 13.875 137.1875 C12.73058958 135.82172312 11.58473204 134.45715762 10.4375 133.09375 C9.86515625 132.40796875 9.2928125 131.7221875 8.703125 131.015625 C6.16270101 128.00906817 3.53333958 125.08976961 0.875 122.1875 C0.00617188 121.23230469 -0.86265625 120.27710938 -1.7578125 119.29296875 C-3.97539751 116.86684175 -3.97539751 116.86684175 -7 115 C-7 114.34 -7 113.68 -7 113 C-11.83893739 113.19701883 -11.83893739 113.19701883 -15.703125 115.73828125 C-17.19179538 118.33448652 -17.35970723 119.96764651 -17.4375 122.9375 C-17.7566757 127.44585673 -18.60690093 129.8125433 -22 133 C-25.69515424 134.84757712 -29.95864702 134.34143535 -34 134 C-37.57903845 132.7636049 -39.38632219 131.69550152 -41.875 128.875 C-43.84920019 123.82982174 -43.87398186 119.05385737 -41.75 114.0625 C-38.46063609 110.18574967 -34.60655408 109.57723407 -29.8046875 108.5625 C-27.77272609 108.08250081 -27.77272609 108.08250081 -26 106 C-25.07992272 102.71618871 -25.07992272 102.71618871 -26 99 C-32.1540004 92.79937159 -40.37417938 88.66633518 -47.890625 84.36328125 C-57.08951569 78.99258745 -57.08951569 78.99258745 -60 75 C-60.20215282 69.50299831 -57.0293457 64.83212025 -54.375 60.1875 C-53.92350586 59.39230957 -53.47201172 58.59711914 -53.00683594 57.77783203 C-45.83224498 45.3332057 -45.83224498 45.3332057 -42 42 C-38.42099325 41.15788077 -37.01405534 41.52114054 -33.75 43.0625 C-31.32953246 45.74230335 -30.98032718 48.5400217 -30 52 C-27.67106875 56.14866964 -25.5324435 59.22898967 -21 61 C-16.23481145 61.74510221 -12.8040623 61.4163894 -8.5 59.1875 C-5.78939949 56.81572455 -5.17218423 55.48191349 -4.76171875 51.94921875 C-4.58126789 46.45021632 -5.09553189 43.19730321 -9 39 C-12.85041113 36.41886157 -16.81204998 34.95693896 -21.3125 33.9375 C-25 33 -25 33 -27 31.6875 C-28.43181286 29.2713158 -28.32223575 27.7833113 -28 25 C-20.85131628 14.70721928 -10.0910868 7.14166988 0 0 Z " fill="#E6BF0B" transform="translate(214,73)"/>
<path d="M0 0 C2.98320839 0.61939847 5.23774119 1.57112971 7.8359375 3.15234375 C8.92829712 3.81544556 8.92829712 3.81544556 10.04272461 4.49194336 C11.19720093 5.2074939 11.19720093 5.2074939 12.375 5.9375 C13.16849854 6.42677979 13.96199707 6.91605957 14.77954102 7.42016602 C19.92629134 10.62688815 24.9837373 13.9398272 29.9375 17.4375 C30.50968262 17.83767334 31.08186523 18.23784668 31.67138672 18.65014648 C34.64064085 20.79199976 37.17285436 22.79263643 39 26 C38.39779103 29.2786933 37.65184443 31.2980137 35.375 33.75 C33.1244099 34.9345211 31.46148234 35.37172294 29 35.875 C25.84267559 36.58642692 25.03004927 36.97149172 22.5625 39.3125 C20.00625917 43.70923424 19.74444715 46.43729123 20.9375 51.3125 C21.288125 52.529375 21.63875 53.74625 22 55 C18.11000569 51.27913587 18.11000569 51.27913587 17.83203125 48.046875 C17.75675086 39.19390058 17.75675086 39.19390058 20 35 C24.47684555 31.83987373 28.710295 30.29543796 34 29 C33.9688059 26.13265479 33.9688059 26.13265479 33 23 C30.22132295 20.73083907 30.22132295 20.73083907 27 19 C26.0409375 18.2575 26.0409375 18.2575 25.0625 17.5 C21.59326592 14.97692067 17.83583121 12.91791561 14 11 C13.01 11.33 12.02 11.66 11 12 C9.81083984 11.92845703 9.81083984 11.92845703 8.59765625 11.85546875 C5.23782261 12.04240686 3.98958807 13.16874602 1.4375 15.3125 C0.32181641 16.23482422 0.32181641 16.23482422 -0.81640625 17.17578125 C-1.53699219 17.77777344 -2.25757813 18.37976563 -3 19 C-3.721875 19.52207031 -4.44375 20.04414063 -5.1875 20.58203125 C-7.50083679 22.39181844 -8.50185156 24.48311062 -10 27 C-12.375 29.5625 -12.375 29.5625 -15 32 C-15.78375 32.78375 -16.5675 33.5675 -17.375 34.375 C-20 36 -20 36 -23.4375 36.0625 C-27.75748722 34.77408276 -29.95959497 33.32996742 -33 30 C-33.40729228 27.67843403 -33.74438677 25.3431213 -34 23 C-35.91621575 20.579887 -35.91621575 20.579887 -38 19 C-43.28993018 22.66535771 -48.48575449 26.50233563 -52 32 C-52 32.99 -52 33.98 -52 35 C-51.20335938 35.10957031 -50.40671875 35.21914063 -49.5859375 35.33203125 C-38.59561602 36.97656841 -38.59561602 36.97656841 -34 40 C-31.90510538 43.14234193 -31.41621111 45.16717308 -31.46484375 48.92578125 C-32.47492502 52.84076779 -35.77741806 54.82968972 -39 57 C-37.2109375 53.171875 -37.2109375 53.171875 -35.3125 51.625 C-33.66482121 49.95044675 -33.66482121 49.95044675 -34.125 46.9375 C-34.74650413 43.70744585 -34.74650413 43.70744585 -38 42 C-39.37243628 41.90629953 -40.74937767 41.87006945 -42.125 41.875 C-48.25039962 41.33363899 -52.16065983 37.57798701 -56 33 C-58.416333 28.18998711 -58.65936232 24.11262985 -57 19 C-54.60775276 15.52165832 -51.91367884 13.39799213 -47.74609375 12.53125 C-42.8399499 12.33201573 -39.12670249 13.21687506 -35 16 C-31.34068066 19.55476736 -30.10906098 23.20564422 -28.80859375 28.01171875 C-28.07127406 30.35821777 -28.07127406 30.35821777 -25 32 C-22.01322117 32.50001027 -22.01322117 32.50001027 -19 32 C-17.06794163 30.40168985 -17.06794163 30.40168985 -15.6875 28 C-14.81931641 26.64648438 -14.81931641 26.64648438 -13.93359375 25.265625 C-9.02823588 16.9810206 -4.24283141 8.64678299 0 0 Z " fill="#971C25" transform="translate(130,2)"/>
<path d="M0 0 C0 0.99 0 1.98 0 3 C-1.67431641 4.33520508 -1.67431641 4.33520508 -3.9765625 5.70703125 C-8.9841561 8.88164552 -13.12256988 12.57735961 -17.375 16.6875 C-18.07238281 17.35072266 -18.76976562 18.01394531 -19.48828125 18.69726562 C-21.33412801 20.45631153 -23.17297689 22.22142272 -25 24 C-25.57314941 24.49862549 -26.14629883 24.99725098 -26.73681641 25.51098633 C-27.15366699 26.00236084 -27.57051758 26.49373535 -28 27 C-27.76716851 30.14921909 -27.76716851 30.14921909 -27 33 C-26.20335937 33.17015625 -25.40671875 33.3403125 -24.5859375 33.515625 C-17.14800816 35.21675726 -11.74510078 36.73555583 -6.6875 42.75 C-4.70211115 46.57371186 -3.77619413 49.68743307 -4 54 C-5.48171943 58.13321735 -7.02393329 61.01196665 -11 63 C-15.41933332 64.08796565 -18.89269401 64.36200388 -23.25 62.9375 C-30.13087765 58.08960893 -32.06595722 52.95630606 -34 45 C-37.98688783 43.81007952 -37.98688783 43.81007952 -42 44 C-45.0841159 46.45234766 -46.94242851 49.67589816 -49 53 C-49.55204102 53.87809326 -49.55204102 53.87809326 -50.11523438 54.77392578 C-53.80930188 60.67069553 -57.4094236 66.60417014 -60.4375 72.875 C-62 76 -62 76 -64 77 C-66.30078125 75.83984375 -66.30078125 75.83984375 -69.3125 73.9375 C-69.86139893 73.59114502 -70.41029785 73.24479004 -70.97583008 72.88793945 C-72.99251617 71.60493935 -74.99676272 70.30390302 -77 69 C-77.86979492 68.43603516 -78.73958984 67.87207031 -79.63574219 67.29101562 C-82.49258496 65.4325372 -85.34138033 63.56235374 -88.1875 61.6875 C-89.12053955 61.07704834 -90.0535791 60.46659668 -91.01489258 59.83764648 C-91.89040771 59.25571533 -92.76592285 58.67378418 -93.66796875 58.07421875 C-94.45453857 57.55432373 -95.2411084 57.03442871 -96.05151367 56.4987793 C-98 55 -98 55 -100 52 C-100.33957563 47.92509248 -100.31332486 46.46998729 -98 43 C-95.5390625 42.2265625 -95.5390625 42.2265625 -92.625 41.625 C-89.24951913 40.74463212 -87.16441754 40.11853357 -84.3125 38.0625 C-82.21637033 33.17153077 -82.69897952 28.2427734 -83 23 C-80.04734295 25.42596688 -79.49450082 27.23780986 -79.125 31 C-78.97417969 32.299375 -78.97417969 32.299375 -78.8203125 33.625 C-79 36 -79 36 -80.3671875 37.8125 C-82 39 -82 39 -84 39 C-84.04125 39.61875 -84.0825 40.2375 -84.125 40.875 C-85 43 -85 43 -87.75 44.25 C-90.65847762 44.92118714 -93.03627984 45.17433648 -96 45 C-96.66 46.98 -97.32 48.96 -98 51 C-97.34 51 -96.68 51 -96 51 C-96 51.66 -96 52.32 -96 53 C-94.8553125 53.433125 -94.8553125 53.433125 -93.6875 53.875 C-91 55 -91 55 -88 57 C-88 57.66 -88 58.32 -88 59 C-87.154375 59.226875 -86.30875 59.45375 -85.4375 59.6875 C-81.90868531 61.03486561 -79.4647429 62.67837603 -76.515625 64.9765625 C-75.02855168 66.18653986 -75.02855168 66.18653986 -73 66 C-72 67 -71 68 -70 69 C-68.35 69.99 -66.7 70.98 -65 72 C-63.02 68.04 -61.04 64.08 -59 60 C-58.34 60 -57.68 60 -57 60 C-56.9175 59.484375 -56.835 58.96875 -56.75 58.4375 C-55.68935269 54.99039625 -53.86960579 52.05634138 -52 49 C-51.360625 47.948125 -50.72125 46.89625 -50.0625 45.8125 C-46.75186606 41.29799917 -43.27832555 38.80971162 -38 37 C-38 38.32 -38 39.64 -38 41 C-36.68 41 -35.36 41 -34 41 C-34 41.66 -34 42.32 -34 43 C-33.34 43 -32.68 43 -32 43 C-31.37379084 44.39529129 -30.74909369 45.79126121 -30.125 47.1875 C-29.75375 48.00734375 -29.3825 48.8271875 -29 49.671875 C-28 52 -28 52 -27.125 54.9375 C-26.09050608 57.3443033 -26.09050608 57.3443033 -22.875 58.3125 C-21.92625 58.539375 -20.9775 58.76625 -20 59 C-19.54109375 58.54109375 -19.0821875 58.0821875 -18.609375 57.609375 C-15.40625 54.40625 -12.203125 51.203125 -9 48 C-9.82291145 44.63354405 -10.37970515 42.52631078 -13.0625 40.25 C-16.30335777 38.87091159 -19.41266954 38.22035601 -22.8515625 37.5234375 C-27.60127993 36.36623362 -30.36429027 34.02292538 -33 30 C-32.34 30 -31.68 30 -31 30 C-30.91878906 28.94039062 -30.91878906 28.94039062 -30.8359375 27.859375 C-29.71928147 24.03978521 -27.4321299 21.91775037 -24.625 19.25 C-24.09060303 18.72921875 -23.55620605 18.2084375 -23.00561523 17.671875 C-17.92691928 12.7898654 -12.54447893 8.34448902 -7 4 C-6.11183594 3.2575 -5.22367187 2.515 -4.30859375 1.75 C-2 0 -2 0 0 0 Z " fill="#246184" transform="translate(234,220)"/>
<path d="M0 0 C3.98174574 -0.4875607 7.5148156 -0.85106072 11.0859375 1.1953125 C14.90798059 4.40453855 17.57667273 7.29961764 18.37109375 12.3671875 C18.48723047 16.75305654 18.27128598 19.46711683 16.25 23.4375 C12.33949522 27.46201367 6.30049526 28.03627359 1 29 C0.33439091 31.88324251 0.33439091 31.88324251 0 35 C7.96967859 45.71784362 23.56042366 52.61512018 35 59 C34.54900965 64.59084858 32.96703847 68.44667661 29.9375 73.1875 C29.53845459 73.83098389 29.13940918 74.47446777 28.72827148 75.13745117 C27.50146681 77.10232557 26.25526333 79.05320249 25 81 C24.61231445 81.60231445 24.22462891 82.20462891 23.82519531 82.82519531 C16.10097865 94.75533808 16.10097865 94.75533808 12.75 95.5 C8.6078453 94.74688096 6.33108437 92.3369167 4 89 C3.11826797 86.71065988 2.44740715 84.40901644 1.76171875 82.0546875 C0.57695666 78.8588677 -1.04952823 77.60934824 -4 76 C-8.97083454 74.73469666 -12.32429769 74.87468077 -17 77 C-21.18240069 79.98742906 -21.89961251 85.23165423 -23 90 C-24 89 -24 89 -24.3125 85.3125 C-24.23237255 80.84138851 -23.05280317 78.36591119 -20 75 C-15.07139949 72.25135741 -10.58914162 71 -5 71 C0.34514528 73.16195917 2.94423149 76.95876453 5.2421875 82.06640625 C5.86952569 83.66708874 6.41478626 85.29966362 6.9375 86.9375 C7.83289249 89.26995932 7.83289249 89.26995932 10.5 89.8125 C12.91456287 90.02492998 12.91456287 90.02492998 15 90 C15 89.01 15 88.02 15 87 C15.66 87 16.32 87 17 87 C16.938125 86.236875 16.87625 85.47375 16.8125 84.6875 C17.03900196 81.44097185 17.64515209 81.09319814 20 79 C21.01866229 77.34467377 22.01810813 75.67739862 23 74 C23.48082031 73.40574219 23.96164062 72.81148438 24.45703125 72.19921875 C26.24930041 69.64466802 27.17060339 67.19549363 28.1875 64.25 C28.53167969 63.26515625 28.87585938 62.2803125 29.23046875 61.265625 C29.61138672 60.14414063 29.61138672 60.14414063 30 59 C29.01 59.33 28.02 59.66 27 60 C27 59.01 27 58.02 27 57 C26.34 57 25.68 57 25 57 C24.10471461 60.0002312 23.99261197 62.44955882 24.1875 65.5625 C24.23046875 67.9375 24.23046875 67.9375 24 70 C22 72.0625 22 72.0625 20 73 C19 72 19 72 18.88647461 70.14233398 C18.89171143 69.35157471 18.89694824 68.56081543 18.90234375 67.74609375 C18.90556641 66.89208984 18.90878906 66.03808594 18.91210938 65.15820312 C18.92467773 63.81145508 18.92467773 63.81145508 18.9375 62.4375 C18.94201172 61.53580078 18.94652344 60.63410156 18.95117188 59.70507812 C18.96299775 57.46998686 18.9794778 55.23502563 19 53 C18.34 53 17.68 53 17 53 C15.88497867 51.88497867 14.78471397 50.75242106 13.75 49.5625 C11.94462692 47.8088486 11.94462692 47.8088486 9.0625 46.5625 C6.0357761 45.01825311 4.33293309 43.41337906 2 41 C0.515 40.505 0.515 40.505 -1 40 C-2.8763058 37.05151946 -4 34.96448831 -4 31.4375 C-2.55105662 27.90570052 -1.06684879 26.31578378 2 24 C4.60167055 23.35367304 7.12863499 22.9439425 9.79296875 22.65234375 C12.12680765 22.20815737 12.12680765 22.20815737 13.27734375 20.21875 C14.8584009 15.36447723 14.831335 10.7382459 12.625 6.125 C8.8285749 3.05170349 4.70100869 2.10348105 0 1 C0 0.67 0 0.34 0 0 Z " fill="#9A8111" transform="translate(263,83)"/>
<path d="M0 0 C0.556875 0.19335938 1.11375 0.38671875 1.6875 0.5859375 C2.450625 0.84632813 3.21375 1.10671875 4 1.375 C4.81855469 1.65472656 5.63710937 1.93445313 6.48046875 2.22265625 C8.76148502 2.92641166 10.96863151 3.3843357 13.3125 3.8125 C17 5 17 5 19.5625 7.8125 C21.19141824 11.42444915 21.21923594 12.33125836 20 16 C14.7529014 22.5210855 7.98602873 27.8244496 1.4453125 32.9921875 C-1.05018093 34.92576128 -1.05018093 34.92576128 -3.0078125 37.3203125 C-5 39 -5 39 -7.51171875 39.00390625 C-10.50110596 37.79782695 -11.79395246 36.4309999 -13.8125 33.9375 C-14.41707031 33.20402344 -15.02164063 32.47054687 -15.64453125 31.71484375 C-16.09183594 31.14894531 -16.53914062 30.58304688 -17 30 C-14 30 -14 30 -11 31 C-10.66666667 32.33333333 -10.33333333 33.66666667 -10 35 C-9.01 35.33 -8.02 35.66 -7 36 C-6.938125 35.38125 -6.87625 34.7625 -6.8125 34.125 C-6 32 -6 32 -3.4375 30.75 C-2.633125 30.5025 -1.82875 30.255 -1 30 C-1 29.34 -1 28.68 -1 28 C-0.01 28 0.98 28 2 28 C2.226875 27.443125 2.45375 26.88625 2.6875 26.3125 C4.37550036 23.33840412 6.46676517 21.27991135 9 19 C9.66 19 10.32 19 11 19 C11 18.34 11 17.68 11 17 C12.95927063 15.2856382 14.95880212 13.61594832 17 12 C16.505 10.515 16.505 10.515 16 9 C15.34 9.33 14.68 9.66 14 10 C10.13938967 11.28687011 7.05849717 11.13757618 3 11 C3 10.67 3 10.34 3 10 C5.31 9.34 7.62 8.68 10 8 C9.67 7.34 9.34 6.68 9 6 C8.2575 6.12375 7.515 6.2475 6.75 6.375 C4 6 4 6 1.6875 3 C1.130625 2.01 0.57375 1.02 0 0 Z " fill="#C1A31A" transform="translate(244,179)"/>
<path d="M0 0 C1.23556641 0.01740234 1.23556641 0.01740234 2.49609375 0.03515625 C3.32238281 0.04417969 4.14867187 0.05320313 5 0.0625 C5.63808594 0.07410156 6.27617188 0.08570313 6.93359375 0.09765625 C6.60359375 0.75765625 6.27359375 1.41765625 5.93359375 2.09765625 C4.29390625 2.46890625 4.29390625 2.46890625 2.62109375 2.84765625 C-1.20313832 3.81111255 -1.20313832 3.81111255 -3.50390625 6.78515625 C-5.26457707 10.51777838 -5.392633 13.01982187 -5.06640625 17.09765625 C-4.40640625 17.09765625 -3.74640625 17.09765625 -3.06640625 17.09765625 C-3.06640625 18.08765625 -3.06640625 19.07765625 -3.06640625 20.09765625 C-1.08640625 20.42765625 0.89359375 20.75765625 2.93359375 21.09765625 C2.60359375 22.08765625 2.27359375 23.07765625 1.93359375 24.09765625 C2.59359375 24.09765625 3.25359375 24.09765625 3.93359375 24.09765625 C3.93359375 21.78765625 3.93359375 19.47765625 3.93359375 17.09765625 C8.61051683 18.57457933 8.61051683 18.57457933 10.24609375 21.22265625 C10.47296875 21.84140625 10.69984375 22.46015625 10.93359375 23.09765625 C11.73796875 22.43765625 12.54234375 21.77765625 13.37109375 21.09765625 C15.93359375 19.09765625 15.93359375 19.09765625 16.93359375 19.09765625 C16.959375 18.43378906 16.98515625 17.76992187 17.01171875 17.0859375 C17.28401052 12.84684978 17.58054946 9.75144198 19.62109375 5.97265625 C21.93359375 4.09765625 21.93359375 4.09765625 25.18359375 3.78515625 C26.09109375 3.88828125 26.99859375 3.99140625 27.93359375 4.09765625 C26.54042498 6.88399379 24.77378859 7.03258319 21.93359375 8.09765625 C20.33079815 9.70045185 20.73690931 11.5714245 20.62109375 13.78515625 C20.07515871 19.66445672 18.27151666 23.14938716 13.68359375 26.97265625 C10.03593511 28.46488024 6.78056647 28.77786754 2.93359375 28.09765625 C-2.29822043 25.38113735 -5.49312013 21.86963655 -8.37890625 16.78515625 C-9.34241783 13.01870188 -9.25910946 9.8107889 -8.06640625 6.09765625 C-5.56640625 3.16015625 -5.56640625 3.16015625 -3.06640625 1.09765625 C-2.06640625 0.09765625 -2.06640625 0.09765625 0 0 Z M-1.06640625 18.09765625 C-0.40640625 18.09765625 0.25359375 18.09765625 0.93359375 18.09765625 C0.93359375 19.08765625 0.93359375 20.07765625 0.93359375 21.09765625 C0.27359375 21.09765625 -0.38640625 21.09765625 -1.06640625 21.09765625 C-1.06640625 20.10765625 -1.06640625 19.11765625 -1.06640625 18.09765625 Z " fill="#558429" transform="translate(29.06640625,188.90234375)"/>
<path d="M0 0 C3.99160113 1.37891676 5.38980573 2.51871443 7.4375 6.1875 C7.1875 8.5 7.1875 8.5 6.4375 10.1875 C2.4375 5.4375 2.4375 5.4375 2.4375 3.1875 C-1.24984468 3.39820541 -2.43888309 4.06079266 -5.0625 6.75 C-9.41608193 12.46407629 -12.91107338 18.71448818 -16.359375 25 C-18.05588997 28.08457268 -19.80896567 31.13505135 -21.5625 34.1875 C-20.84578125 34.45820313 -20.1290625 34.72890625 -19.390625 35.0078125 C-10.7866976 38.59674354 -3.01875235 44.10084301 4.625 49.375 C5.38006836 49.88595215 6.13513672 50.3969043 6.91308594 50.92333984 C7.61594727 51.41656738 8.31880859 51.90979492 9.04296875 52.41796875 C9.98885864 53.07381958 9.98885864 53.07381958 10.95385742 53.74291992 C12.73754514 55.47964531 13.05533121 56.76191135 13.4375 59.1875 C12.86386719 58.89746094 12.29023437 58.60742188 11.69921875 58.30859375 C10.25378761 57.59211925 8.79863184 56.89473481 7.33203125 56.22265625 C6.64496094 55.90167969 5.95789063 55.58070313 5.25 55.25 C4.20779297 54.77240234 4.20779297 54.77240234 3.14453125 54.28515625 C1.4375 53.1875 1.4375 53.1875 0.4375 50.1875 C-1.2651851 49.18269631 -1.2651851 49.18269631 -3.5625 48.1875 C-6.04597731 46.77154726 -8.48875002 45.28753443 -10.9375 43.8125 C-11.58460937 43.42578125 -12.23171875 43.0390625 -12.8984375 42.640625 C-16.8621238 40.2592167 -20.73518321 37.78249188 -24.5625 35.1875 C-23.84591891 31.11322468 -21.87584926 27.66332352 -19.9375 24.0625 C-19.58067139 23.39742432 -19.22384277 22.73234863 -18.85620117 22.04711914 C-15.80796971 16.46173289 -12.39019995 11.27219772 -8.5625 6.1875 C-8.13324219 5.53523438 -7.70398438 4.88296875 -7.26171875 4.2109375 C-4.98059139 0.95643007 -4.04665615 0.2129819 0 0 Z " fill="#5E8637" transform="translate(27.5625,120.8125)"/>
<path d="M0 0 C-0.33 0.66 -0.66 1.32 -1 2 C-2.134375 2.309375 -3.26875 2.61875 -4.4375 2.9375 C-8.23216998 3.65621357 -8.23216998 3.65621357 -10 7 C-10.65139893 9.44059851 -10.65139893 9.44059851 -10 12 C-7.51125195 14.35748791 -7.51125195 14.35748791 -4.1875 16.375 C-3.31411987 16.9481897 -3.31411987 16.9481897 -2.4230957 17.53295898 C-0.62610711 18.70630836 1.18521554 19.85441731 3 21 C4.6396875 22.05767578 4.6396875 22.05767578 6.3125 23.13671875 C8.86471313 24.77505348 11.42619258 26.39588355 14 28 C13.67 28.99 13.34 29.98 13 31 C12.34 31 11.68 31 11 31 C10.34 30.34 9.68 29.68 9 29 C8.154375 28.505 7.30875 28.01 6.4375 27.5 C4 26 4 26 3 24 C2.071875 23.54625 1.14375 23.0925 0.1875 22.625 C-2.9077559 21.0470264 -4.6189271 19.46317887 -7 17 C-7.99 16.67 -8.98 16.34 -10 16 C-11.8763058 13.05151946 -13 10.96448831 -13 7.4375 C-10.3474579 0.97192863 -6.75267518 -0.66202698 0 0 Z " fill="#B4971A" transform="translate(272,107)"/>
<path d="M0 0 C3.0625 0.3125 3.0625 0.3125 4.9375 1.8125 C5.30875 2.3075 5.68 2.8025 6.0625 3.3125 C3.4225 2.9825 0.7825 2.6525 -1.9375 2.3125 C-7.02743328 8.7673316 -11.44304968 15.52065074 -15.5625 22.625 C-16.02446777 23.38925293 -16.48643555 24.15350586 -16.96240234 24.94091797 C-19.6331584 29.58998374 -19.6331584 29.58998374 -19.2109375 34.85546875 C-18.79070312 35.66628906 -18.37046875 36.47710937 -17.9375 37.3125 C-24.0830121 34.96274537 -29.53983489 32.03945924 -34.9375 28.3125 C-34.2775 27.9825 -33.6175 27.6525 -32.9375 27.3125 C-30.5546875 28.52734375 -30.5546875 28.52734375 -27.8125 30.25 C-26.90242187 30.81589844 -25.99234375 31.38179687 -25.0546875 31.96484375 C-24.00667969 32.63193359 -24.00667969 32.63193359 -22.9375 33.3125 C-22.68226563 32.46042969 -22.42703125 31.60835937 -22.1640625 30.73046875 C-19.21897472 22.52361586 -9.31770448 0.99124516 0 0 Z " fill="#7E6D68" transform="translate(173.9375,112.6875)"/>
<path d="M0 0 C3 1 3 1 5 2 C2 3 2 3 -1.875 2.875 C-5.75367389 2.84653267 -7.97032121 3.40313246 -11 6 C-13.27287987 9.44850738 -14.01037534 11.4086055 -13.9375 15.5625 C-14 19 -14 19 -15.625 21.9375 C-18 24 -18 24 -20.875 24.75 C-25.45169857 23.65159234 -27.32814522 20.71406764 -30 17 C-28.125 17.3125 -28.125 17.3125 -26 18 C-25.34 18.99 -24.68 19.98 -24 21 C-21.5 21.5 -21.5 21.5 -19 21 C-16.85934162 17.78901242 -16.81854753 16.92871722 -16.75 13.25 C-16.31763077 7.67814741 -14.16641926 4.61384376 -10 1 C-6.82587823 -0.58706088 -3.46361333 -0.28477127 0 0 Z " fill="#63737C" transform="translate(141,235)"/>
<path d="M0 0 C0.99 0.33 1.98 0.66 3 1 C2.54900965 6.59084858 0.96703847 10.44667661 -2.0625 15.1875 C-2.46154541 15.83098389 -2.86059082 16.47446777 -3.27172852 17.13745117 C-4.49853319 19.10232557 -5.74473667 21.05320249 -7 23 C-7.38768555 23.60231445 -7.77537109 24.20462891 -8.17480469 24.82519531 C-14.32638889 34.32638889 -14.32638889 34.32638889 -17 37 C-19.625 37.125 -19.625 37.125 -22 37 C-22.33 36.34 -22.66 35.68 -23 35 C-22.13375 34.855625 -21.2675 34.71125 -20.375 34.5625 C-16.80024777 32.90752211 -16.18379861 32.19329685 -14.15625 29.01171875 C-13.63853027 28.20275146 -13.12081055 27.39378418 -12.58740234 26.56030273 C-12.06355957 25.71540283 -11.5397168 24.87050293 -11 24 C-10.50064941 23.19570557 -10.00129883 22.39141113 -9.48681641 21.56274414 C-8.00715111 19.13954187 -6.56214884 16.69862044 -5.125 14.25 C-4.37863281 13.01443359 -4.37863281 13.01443359 -3.6171875 11.75390625 C-2.91335938 10.55314453 -2.91335938 10.55314453 -2.1953125 9.328125 C-1.77266113 8.6155957 -1.35000977 7.90306641 -0.91455078 7.16894531 C0.1522313 4.6389688 0.16733572 2.7190565 0 0 Z " fill="#7B776B" transform="translate(295,141)"/>
<path d="M0 0 C1.36125 0.1546875 1.36125 0.1546875 2.75 0.3125 C1.35683123 3.09883754 -0.40980516 3.24742694 -3.25 4.3125 C-4.8527956 5.9152956 -4.44668444 7.78626825 -4.5625 10 C-5.10843504 15.87930047 -6.91207709 19.36423091 -11.5 23.1875 C-15.14150805 24.67720784 -18.4093534 25.01011745 -22.25 24.3125 C-27.75 21.3125 -27.75 21.3125 -29.25 18.3125 C-26.25 19.8125 -26.25 19.8125 -23.25 21.3125 C-18.01730994 21.71501462 -14.71059515 21.11333881 -10.25 18.3125 C-8.12542182 15.12563272 -8.02012771 14.11034746 -7.875 10.4375 C-7.5773822 6.98715131 -7.24503262 5.30330115 -5.5625 2.1875 C-3.25 0.3125 -3.25 0.3125 0 0 Z " fill="#74786E" transform="translate(54.25,192.6875)"/>
<path d="M0 0 C0 0.99 0 1.98 0 3 C-1.67431641 4.33520508 -1.67431641 4.33520508 -3.9765625 5.70703125 C-8.9841561 8.88164552 -13.12256988 12.57735961 -17.375 16.6875 C-18.42107422 17.68233398 -18.42107422 17.68233398 -19.48828125 18.69726562 C-21.33412801 20.45631153 -23.17297689 22.22142272 -25 24 C-25.5254541 24.50249268 -26.0509082 25.00498535 -26.59228516 25.52270508 C-28.22589582 27.15205913 -28.22589582 27.15205913 -30 30 C-30.33203125 27.859375 -30.33203125 27.859375 -30 25 C-28.28404114 22.8558001 -26.67365806 21.10765796 -24.6875 19.25 C-24.14859131 18.72921875 -23.60968262 18.2084375 -23.05444336 17.671875 C-17.95028627 12.8055193 -12.55017167 8.34894968 -7 4 C-6.11183594 3.2575 -5.22367188 2.515 -4.30859375 1.75 C-2 0 -2 0 0 0 Z " fill="#737171" transform="translate(234,220)"/>
<path d="M0 0 C0.83984375 1.63671875 0.83984375 1.63671875 1 4 C-0.75083925 6.15886092 -2.41924534 7.93449643 -4.4375 9.8125 C-4.99155518 10.34512451 -5.54561035 10.87774902 -6.11645508 11.42651367 C-7.72991528 12.96730605 -9.36004865 14.48748436 -11 16 C-11.74765625 16.6909375 -12.4953125 17.381875 -13.265625 18.09375 C-17.97948669 22.30939866 -22.97088419 26.16995578 -28 30 C-29.32 28.68 -30.64 27.36 -32 26 C-31.14792969 25.94714844 -30.29585938 25.89429688 -29.41796875 25.83984375 C-24.95958506 24.74435519 -22.64505234 22.60872326 -19.3125 19.5625 C-18.70962158 19.0269751 -18.10674316 18.4914502 -17.4855957 17.93969727 C-16.2502733 16.83915506 -15.01970127 15.73325747 -13.79394531 14.62207031 C-12.10315566 13.09327248 -10.39545314 11.58658605 -8.6796875 10.0859375 C-3.31383373 5.76311342 -3.31383373 5.76311342 0 0 Z " fill="#76766E" transform="translate(115,196)"/>
<path d="M0 0 C1.8871875 0.0309375 1.8871875 0.0309375 3.8125 0.0625 C3.8125 0.3925 3.8125 0.7225 3.8125 1.0625 C2.7296875 1.18625 2.7296875 1.18625 1.625 1.3125 C-2.96735088 2.5371269 -5.41011944 4.84090198 -7.9375 8.8125 C-8.99661505 11.56619914 -9.44688352 13.50309981 -9.75 16.375 C-9.894375 17.591875 -10.03875 18.80875 -10.1875 20.0625 C-10.8475 20.3925 -11.5075 20.7225 -12.1875 21.0625 C-12.32322155 18.66475255 -12.42186868 16.27474755 -12.5 13.875 C-12.54189453 13.20146484 -12.58378906 12.52792969 -12.62695312 11.83398438 C-12.72318056 7.88865958 -12.34285183 6.25740539 -9.85546875 3.13671875 C-6.48497822 0.51632275 -4.15118249 -0.06805217 0 0 Z " fill="#B79A15" transform="translate(266.1875,81.9375)"/>
<path d="M0 0 C0.796875 1.67578125 0.796875 1.67578125 1 4 C-0.921875 6.48046875 -0.921875 6.48046875 -3.75 9.1875 C-4.2457251 9.66582275 -4.7414502 10.14414551 -5.25219727 10.63696289 C-9.49942108 14.67527392 -13.98703588 18.40068364 -18.58984375 22.02734375 C-21.054805 23.9403252 -21.054805 23.9403252 -23.06640625 26.31640625 C-23.70449219 26.87199219 -24.34257812 27.42757812 -25 28 C-27.25 27.75 -27.25 27.75 -29 27 C-28.35675781 26.48953125 -27.71351563 25.9790625 -27.05078125 25.453125 C-20.86287733 20.47455466 -14.97362423 15.30688065 -9.24145508 9.81152344 C-5.21136962 6 -5.21136962 6 -3 6 C-2.690625 5.38125 -2.38125 4.7625 -2.0625 4.125 C-1.375 2.75 -0.6875 1.375 0 0 Z " fill="#757373" transform="translate(264,190)"/>
<path d="M0 0 C1.1875 1.6875 1.1875 1.6875 2 4 C0.42536072 7.48078157 -0.78882551 8.85921701 -4 11 C-5.30307373 11.31305878 -6.61733439 11.58191445 -7.9375 11.8125 C-11.09442229 12.55530525 -11.97460414 12.97590649 -14.4375 15.3125 C-16.99374083 19.70923424 -17.25555285 22.43729123 -16.0625 27.3125 C-15.711875 28.529375 -15.36125 29.74625 -15 31 C-18.14029766 27.99623702 -19.18220165 26.11020874 -19.375 21.75 C-19.34674356 18.24055014 -18.92741088 16.28671593 -16.6875 13.5625 C-13.20671241 10.24360951 -11.04166274 8.78623154 -6.3125 8.375 C-5.50425781 8.30023438 -4.69601563 8.22546875 -3.86328125 8.1484375 C-2.94095703 8.07496094 -2.94095703 8.07496094 -2 8 C-1.34 5.36 -0.68 2.72 0 0 Z " fill="#7F6567" transform="translate(167,26)"/>
<path d="M0 0 C0.66 0.33 1.32 0.66 2 1 C0.46341008 5.11619846 -2.17664876 6.86410263 -5.6875 9.375 C-18.84710673 18.86221519 -18.84710673 18.86221519 -28 32 C-28.35471526 28.7732354 -28.24630496 27.35934347 -26.3828125 24.640625 C-18.97183885 16.79371172 -11.3295185 9.42990139 -2.49609375 3.19140625 C-0.85101934 2.05294241 -0.85101934 2.05294241 0 0 Z " fill="#6D6C6E" transform="translate(212,70)"/>
<path d="M0 0 C2.45993942 2.45993942 2.34992473 3.35001885 2.4375 6.75 C2.31491839 10.79519315 1.86890849 13.77139301 -1.08984375 16.81640625 C-5.26419595 19.40296804 -10.22597225 20.13199495 -15 21 C-15.33 23.64 -15.66 26.28 -16 29 C-16.66 28.67 -17.32 28.34 -18 28 C-17.38793103 21.51206897 -17.38793103 21.51206897 -15.73046875 19.32421875 C-13.6495006 17.73178488 -12.20444506 17.48594624 -9.625 17.125 C-6.42244065 16.46150076 -4.77845204 15.859837 -1.9375 14.0625 C0.94329535 9.50898477 0.41351187 5.24700614 0 0 Z " fill="#78766F" transform="translate(279,91)"/>
<path d="M0 0 C0.99 0 1.98 0 3 0 C2.62875 0.886875 2.2575 1.77375 1.875 2.6875 C0.89215772 6.40826005 1.23937836 7.67438135 3 11 C4.175625 11.0825 5.35125 11.165 6.5625 11.25 C11.15469785 11.79844431 14.14249265 13.50869317 18 16 C14.79353424 17.60323288 12.33189213 16.03780247 9 15 C7.783125 14.731875 6.56625 14.46375 5.3125 14.1875 C1.41314239 12.78961708 0.06883728 11.55840012 -2 8 C-2.54275639 4.20070529 -2.18379446 3.2756917 0 0 Z " fill="#6E8C50" transform="translate(39,102)"/>
<path d="M0 0 C1.670625 0.061875 1.670625 0.061875 3.375 0.125 C2.055 0.455 0.735 0.785 -0.625 1.125 C-0.625 1.785 -0.625 2.445 -0.625 3.125 C0.07625 3.33125 0.7775 3.5375 1.5 3.75 C5.33225116 5.58281577 7.47952507 8.02751519 10.375 11.125 C10.045 11.785 9.715 12.445 9.375 13.125 C3.5 8.375 3.5 8.375 2.375 6.125 C0.47966658 5.65976937 0.47966658 5.65976937 -1.6875 5.5 C-2.986875 5.37625 -4.28625 5.2525 -5.625 5.125 C-5.625 5.785 -5.625 6.445 -5.625 7.125 C-6.285 7.125 -6.945 7.125 -7.625 7.125 C-5.06433824 0.17463235 -5.06433824 0.17463235 0 0 Z " fill="#208DC6" transform="translate(203.625,185.875)"/>
<path d="M0 0 C3.0625 1.5 3.0625 1.5 5 3 C4.01 3.495 4.01 3.495 3 4 C2.34 3.67 1.68 3.34 1 3 C-3.87353602 2.31770496 -7.13124331 2.49454156 -11.4375 5 C-14.63502429 8.74344307 -15.18646947 11.20016987 -16 16 C-16.33 16 -16.66 16 -17 16 C-17.29506821 10.98384047 -17.13763361 8.00318771 -14 4 C-9.84175302 -0.52515112 -5.8410702 -0.91893871 0 0 Z " fill="#717B71" transform="translate(107,162)"/>
<path d="M0 0 C2.47007953 2.47007953 2.68477721 4.49329894 3.03125 7.90234375 C2.9695861 12.04153311 1.05769594 14.82026222 -1.625 17.8125 C-5.19261676 19.59630838 -9.01533317 20.16154055 -13 20 C-13.66 19.34 -14.32 18.68 -15 18 C-14.32453125 17.89042969 -13.6490625 17.78085937 -12.953125 17.66796875 C-12.06109375 17.50941406 -11.1690625 17.35085938 -10.25 17.1875 C-9.36828125 17.03667969 -8.4865625 16.88585937 -7.578125 16.73046875 C-4.7162245 15.91959694 -3.11201123 15.09281112 -1 13 C-0.30611478 10.87430445 -0.30611478 10.87430445 -0.25 8.5625 C-0.19328125 7.80066406 -0.1365625 7.03882813 -0.078125 6.25390625 C-0.00590501 4.17035945 0 2.08479807 0 0 Z " fill="#6A7175" transform="translate(227,264)"/>
<path d="M0 0 C0.86625 -0.00515625 1.7325 -0.0103125 2.625 -0.015625 C5 0.25 5 0.25 8 2.25 C6.96875 2.20875 5.9375 2.1675 4.875 2.125 C0.41702522 2.26880564 -3.07691723 2.87636945 -6.75 5.5 C-9.2134227 8.94879178 -10.05778245 13.16705727 -11 17.25 C-12 16.25 -12 16.25 -12.3125 12.5625 C-12.26488965 8.14267214 -10.84935393 5.66922472 -8 2.25 C-4.76085771 0.09057181 -3.75140267 -0.02232978 0 0 Z " fill="#7C796E" transform="translate(251,155.75)"/>
<path d="M0 0 C0.33 0 0.66 0 1 0 C1.56862745 9.66666667 1.56862745 9.66666667 -2 14 C-3.91190172 16.13250577 -5.24299407 16.89632001 -8.08203125 17.28515625 C-12.89955926 17.46890939 -16.06480092 17.04660574 -20 14 C-16.7099729 12.35498645 -13.30041756 13.41989657 -9.7265625 13.84375 C-7.15253647 13.99125866 -5.39656708 13.91841233 -3 13 C-0.67678531 8.96494291 -0.46299608 4.55279477 0 0 Z " fill="#826662" transform="translate(208,118)"/>
<path d="M0 0 C6.40522707 0.27256285 11.25103388 2.64847954 16 7 C16.7578125 9.19921875 16.7578125 9.19921875 17 11 C12.80591769 9.5137853 9.37332677 7.41721984 5.6875 4.9375 C4.61886719 4.22464844 3.55023438 3.51179687 2.44921875 2.77734375 C1.64097656 2.19082031 0.83273438 1.60429687 0 1 C0 0.67 0 0.34 0 0 Z " fill="#C6B538" transform="translate(168,157)"/>
<path d="M0 0 C0 3 0 3 -1.1953125 4.6640625 C-4.63471797 7.2101159 -8.91806534 6.50699189 -13 6 C-16.125 4.5 -16.125 4.5 -18 3 C-17.34 2.67 -16.68 2.34 -16 2 C-15.34 2.33 -14.68 2.66 -14 3 C-11.69589956 3.23604169 -11.69589956 3.23604169 -9.125 3.25 C-8.26132813 3.27578125 -7.39765625 3.3015625 -6.5078125 3.328125 C-3.54975351 2.94108924 -2.20798216 1.95124005 0 0 Z " fill="#858068" transform="translate(194,203)"/>
<path d="M0 0 C0.845625 0.00386719 1.69125 0.00773437 2.5625 0.01171875 C5.11537729 0.32673726 6.79013935 1.02853004 9 2.3125 C7 3.3125 7 3.3125 3.3125 2.6875 C-2.49843193 1.85283887 -6.18495673 4.10247116 -11 7.3125 C-8.79631228 1.98692134 -5.7631043 -0.11420786 0 0 Z " fill="#766B68" transform="translate(118,85.6875)"/>
<path d="M0 0 C7.63076923 1.47692308 7.63076923 1.47692308 9.5 4.125 C9.665 4.74375 9.83 5.3625 10 6 C6.00452264 5.38531118 3.22493358 3.34540624 0 1 C0 0.67 0 0.34 0 0 Z " fill="#C54048" transform="translate(130,134)"/>
<path d="M0 0 C1.670625 0.061875 1.670625 0.061875 3.375 0.125 C1.32527548 1.14986226 -0.70530215 2.15941521 -2.8125 3.0625 C-4.96895107 4.05934552 -4.96895107 4.05934552 -5.625 7.125 C-6.285 7.125 -6.945 7.125 -7.625 7.125 C-5.06433824 0.17463235 -5.06433824 0.17463235 0 0 Z " fill="#6E7679" transform="translate(203.625,185.875)"/>
</svg>
